<?xml version="1.0" encoding="UTF-8"?>
<svg width="220px" height="40px" viewBox="0 0 220 40" version="1.1" xmlns="http://www.w3.org/2000/svg" xmlns:xlink="http://www.w3.org/1999/xlink">
    <!-- Generator: Sketch 51.3 (57544) - http://www.bohemiancoding.com/sketch -->
    <title>Group Copy</title>
    <desc>Created with Sketch.</desc>
    <defs></defs>
    <g id="Page-2" stroke="none" stroke-width="1" fill="none" fill-rule="evenodd">
        <g id="Desktop-HD-Copy" transform="translate(-140.000000, -20.000000)" fill="#006DD7">
            <g id="Group-Copy" transform="translate(140.000000, 20.000000)">
                <path d="M1.20123524,27.2210735 L5.55066348,22.8888366 C6.61437727,21.8293273 8.33899806,21.8293273 9.40271185,22.8888366 L13.6155911,27.0850641 C14.6793048,28.1445735 14.6793048,29.8623776 13.6155911,30.921887 L9.26616281,35.2541239 C8.20244903,36.3136332 6.47782823,36.3136332 5.41411444,35.2541239 L1.20123524,31.0578963 C0.137521453,29.998387 0.137521453,28.2805828 1.20123524,27.2210735 Z M11.2252622,17.2366672 L15.5746904,12.9044303 C16.6384042,11.8449209 18.363025,11.8449209 19.4267388,12.9044303 L23.639618,17.1006578 C24.7033318,18.1601672 24.7033318,19.8779713 23.639618,20.9374807 L19.2901898,25.2697175 C18.226476,26.3292269 16.5018552,26.3292269 15.4381414,25.2697175 L11.2252622,21.07349 C10.1615484,20.0139807 10.1615484,18.2961765 11.2252622,17.2366672 Z M21.0823959,27.0548399 L25.4318242,22.722603 C26.4955379,21.6630936 28.2201587,21.6630936 29.2838725,22.722603 L33.4967517,26.9188305 C34.5604655,27.9783399 34.5604655,29.696144 33.4967517,30.7556534 L29.1473235,35.0878902 C28.0836097,36.1473996 26.3589889,36.1473996 25.2952751,35.0878902 L21.0823959,30.8916627 C20.0186821,29.8321534 20.0186821,28.1143492 21.0823959,27.0548399 Z M40.9635566,26.8886062 L45.3129848,22.5563694 C46.3766986,21.49686 48.1013194,21.49686 49.1650332,22.5563694 L53.3779124,26.7525969 C54.4416262,27.8121063 54.4416262,29.5299104 53.3779124,30.5894198 L49.0284842,34.9216566 C47.9647704,35.981166 46.2401496,35.981166 45.1764358,34.9216566 L40.9635566,30.7254291 C39.8998428,29.6659197 39.8998428,27.9481156 40.9635566,26.8886062 Z M21.2492892,7.25226084 L25.5987174,2.92002402 C26.6624312,1.86051463 28.387052,1.86051463 29.4507658,2.92002402 L33.663645,7.11625152 C34.7273588,8.17576091 34.7273588,9.89356502 33.663645,10.9530744 L29.3142168,15.2853112 C28.250503,16.3448206 26.5258822,16.3448206 25.4621684,15.2853112 L21.2492892,11.0890837 C20.1855754,10.0295743 20.1855754,8.31177023 21.2492892,7.25226084 Z M31.1064229,17.0704335 L35.4558511,12.7381967 C36.5195649,11.6786873 38.2441857,11.6786873 39.3078995,12.7381967 L43.5207787,16.9344242 C44.5844925,17.9939336 44.5844925,19.7117377 43.5207787,20.7712471 L39.1713505,25.1034839 C38.1076367,26.1629933 36.3830159,26.1629933 35.3193021,25.1034839 L31.1064229,20.9072564 C30.0427091,19.847747 30.0427091,18.1299429 31.1064229,17.0704335 Z M50.9875835,16.9041999 L55.3370118,12.5719631 C56.4007256,11.5124537 58.1253464,11.5124537 59.1890602,12.5719631 L63.4019394,16.7681906 C64.4656532,17.8277 64.4656532,19.5455041 63.4019394,20.6050135 L59.0525111,24.9372503 C57.9887973,25.9967597 56.2641765,25.9967597 55.2004628,24.9372503 L50.9875835,20.7410228 C49.9238698,19.6815134 49.9238698,17.9637093 50.9875835,16.9041999 Z" id="Combined-Shape"></path>
                <path d="M90.6757735,26.3153461 L92.7070441,26.3153461 L92.7070441,25.2969532 L94.2766623,25.2969532 L94.2766623,26.3153461 L96.7080316,26.3153461 L96.7080316,25.2969532 L98.2776498,25.2969532 L98.2776498,26.3153461 L100.370474,26.3153461 L100.370474,27.8429354 L98.2776498,27.8429354 L98.2776498,29.0522769 L96.7080316,29.0522769 L96.7080316,27.8429354 L94.2766623,27.8429354 L94.2766623,29.0522769 L92.7070441,29.0522769 L92.7070441,27.8429354 L90.6757735,27.8429354 L90.6757735,26.3153461 Z M92.7224325,32.664389 C92.2146149,32.9985492 91.6914088,33.2849722 91.1682028,33.5395704 L90.2141211,32.0756306 C92.2300033,31.2163617 93.784233,30.0865821 94.8921988,28.6862919 L96.1848255,28.6862919 C97.0773535,29.9751954 98.6008065,31.104975 100.755184,32.0756306 L99.8011027,33.5395704 C99.2471198,33.2690598 98.7393022,32.9826368 98.2930382,32.6803014 L98.2930382,33.3167969 L92.7224325,33.3167969 L92.7224325,32.664389 Z M97.1389072,31.8210324 C96.4925938,31.2640988 95.9693878,30.6594281 95.5385122,30.0229326 C95.0153061,30.6912529 94.4613232,31.2959236 93.8457867,31.8210324 L97.1389072,31.8210324 Z M99.1701777,34.2556278 L99.1701777,39.7613142 L97.615948,39.7613142 L97.615948,39.1089063 L93.445688,39.1089063 L93.445688,39.7613142 L91.8914582,39.7613142 L91.8914582,34.2556278 L99.1701777,34.2556278 Z M93.445688,37.5654046 L97.615948,37.5654046 L97.615948,35.7991295 L93.445688,35.7991295 L93.445688,37.5654046 Z M86.6132324,29.0204521 L87.8750823,29.0204521 L87.8750823,25.2969532 L89.4908657,25.2969532 L89.4908657,29.0204521 L90.9065997,29.0204521 L90.9065997,30.6435157 L89.4908657,30.6435157 L89.4908657,35.4649693 C89.9832949,35.2421959 90.4603357,34.9875977 90.952765,34.7329995 L90.952765,36.4674498 C89.6755267,37.1994197 88.3213463,37.8200028 86.8748354,38.3291992 L86.4285714,36.4833622 C86.9210007,36.3719755 87.3980415,36.2446764 87.8750823,36.0855525 L87.8750823,30.6435157 L86.6132324,30.6435157 L86.6132324,29.0204521 Z M134.148041,33.9532925 L136.825625,33.9532925 L136.825625,32.4893527 L134.471198,32.4893527 L134.16343,31.1208873 C134.594305,30.3730051 135.009793,29.4341742 135.379115,28.2884822 L134.055711,28.2884822 L134.055711,26.8404549 L135.80999,26.8404549 C135.948486,26.3153461 136.086982,25.7743249 136.210089,25.2173913 L137.625823,25.5674638 C137.518104,26.0130107 137.410385,26.4267328 137.302666,26.8404549 L139.995639,26.8404549 L139.995639,28.2884822 L136.871791,28.2884822 C136.533246,29.3227875 136.179312,30.245706 135.794602,31.0413254 L136.825625,31.0413254 L136.825625,29.0681893 L138.302913,29.0681893 L138.302913,31.0413254 L139.841754,31.0413254 L139.841754,32.4893527 L138.302913,32.4893527 L138.302913,33.9532925 L140.288018,33.9532925 L140.288018,35.4172322 L138.302913,35.4172322 L138.302913,37.7086161 L136.825625,37.7086161 L136.825625,35.4172322 L134.148041,35.4172322 L134.148041,33.9532925 Z M132.162936,25.4401647 C132.80925,26.4267328 133.317067,27.2700894 133.686389,28.0020593 L132.486093,28.8613282 C132.116771,28.0657088 131.608953,27.1746151 130.993417,26.2039594 L132.162936,25.4401647 Z M137.979756,38.1700753 C138.841508,38.1700753 139.672482,38.154163 140.441903,38.1223382 L140.026415,39.6817522 L137.856649,39.6817522 C137.394997,39.6817522 136.933344,39.6658398 136.471692,39.6499275 C135.794602,39.6340151 135.163677,39.5385407 134.609694,39.3635045 C134.086488,39.1725558 133.640224,38.8702204 133.28629,38.4564983 C133.086241,38.2337249 132.916968,38.1382506 132.778473,38.1382506 C132.578423,38.1382506 132.178325,38.7270089 131.562788,39.9363504 L130.639483,38.6792718 C131.208855,37.7563533 131.701284,37.1198577 132.116771,36.80161 L132.116771,31.8528572 L131.101136,31.8528572 L131.101136,30.3889175 L133.57867,30.3889175 L133.57867,36.9448215 C133.855662,37.3108064 134.224984,37.5972294 134.655859,37.8200028 C135.117512,37.9791267 135.640718,38.0905134 136.225477,38.1382506 C136.810237,38.154163 137.394997,38.1700753 137.979756,38.1700753 Z M127.577189,25.2492161 L129.100642,25.5833762 C129.008311,26.0289231 128.915981,26.4426452 128.82365,26.8404549 L130.839533,26.8404549 L130.839533,28.4157813 L128.392775,28.4157813 C128.208114,29.0045397 128.008065,29.5614733 127.792627,30.0706697 L130.639483,30.0706697 L130.639483,31.5505218 L129.562294,31.5505218 L129.562294,33.0462863 L131.070359,33.0462863 L131.070359,34.5738756 L129.562294,34.5738756 L129.562294,37.5494922 C129.900839,37.3267188 130.254773,37.0721206 130.593318,36.7697852 L130.870309,38.2019001 C130.100889,38.7588337 129.208361,39.220293 128.192725,39.5862779 L127.592577,38.2178125 C127.869569,38.0905134 128.023453,37.8836524 128.023453,37.5972294 L128.023453,34.5738756 L126.484612,34.5738756 L126.484612,33.0462863 L128.023453,33.0462863 L128.023453,31.5505218 L127.46947,31.5505218 L127.46947,30.8026396 L127.254032,31.2481865 L125.992182,30.4207423 C126.746215,28.7976787 127.269421,27.0791407 127.577189,25.2492161 Z M179.913183,33.6350447 L180.174786,35.2581083 L178.759052,35.4967941 L178.759052,39.8886133 L177.143269,39.8886133 L177.143269,35.7673047 L172.57291,36.515187 L172.326695,34.8921234 L177.143269,34.096504 L177.143269,25.2492161 L178.759052,25.2492161 L178.759052,33.8259934 L179.913183,33.6350447 Z M174.157916,26.0607479 C175.173552,26.8245425 176.050691,27.5724248 176.758558,28.320307 L175.650592,29.4819114 C175.035056,28.7658539 174.157916,28.0020593 173.019174,27.2064398 L174.157916,26.0607479 Z M173.696264,29.7205972 C174.742676,30.5162166 175.619816,31.2959236 176.35846,32.0756306 L175.204329,33.2690598 C174.588792,32.5370899 173.696264,31.7255581 172.557521,30.8662891 L173.696264,29.7205972 Z M166.202107,29.3068751 L168.556534,29.3068751 L168.556534,27.4769504 C167.894832,27.5724248 167.217742,27.6519867 166.525263,27.7156363 L166.202107,26.1562222 C168.187212,25.9970983 169.95688,25.694763 171.526498,25.2173913 L172.095869,26.7768054 C171.480332,26.9359292 170.849408,27.0950531 170.172317,27.2223522 L170.172317,29.3068751 L172.080481,29.3068751 L172.080481,30.9140263 L170.172317,30.9140263 L170.172317,31.4550475 C170.972515,32.091543 171.788101,32.7916881 172.619075,33.5713951 L171.711159,34.9716853 C171.111011,34.1919783 170.603193,33.5554828 170.172317,33.0781111 L170.172317,39.8727009 L168.556534,39.8727009 L168.556534,33.2213226 C168.002551,34.5579632 167.279296,35.7991295 166.417544,36.9129967 L165.709677,35.0512473 C166.909974,33.8419057 167.787113,32.457528 168.356485,30.9140263 L166.202107,30.9140263 L166.202107,29.3068751 Z M207.519997,39.7454018 L206.196593,39.7454018 L205.858048,38.2019001 C206.242758,38.2655497 206.61208,38.2973745 206.981402,38.2973745 C207.319947,38.2973745 207.48922,38.0905134 207.48922,37.6767913 L207.48922,34.4784013 C206.966014,34.6852623 206.427419,34.876211 205.904213,35.0671596 L205.488726,33.4281836 C206.165816,33.2690598 206.827518,33.0621987 207.48922,32.8394253 L207.48922,29.5455609 L205.796494,29.5455609 L205.796494,27.9384097 L207.48922,27.9384097 L207.48922,25.2173913 L209.058838,25.2173913 L209.058838,27.9384097 L210.505349,27.9384097 L210.505349,29.5455609 L209.058838,29.5455609 L209.058838,32.1870174 C209.551267,31.9483315 210.043697,31.6937333 210.536126,31.4073103 L210.536126,33.0303739 C210.043697,33.3008845 209.551267,33.5554828 209.058838,33.7941686 L209.058838,38.0905134 C209.058838,39.1884682 208.535632,39.7454018 207.519997,39.7454018 Z M210.890059,27.3337389 L214.444783,27.3337389 L214.444783,25.2492161 L216.014401,25.2492161 L216.014401,27.3337389 L219.569124,27.3337389 L219.569124,28.9090654 L216.014401,28.9090654 L216.014401,31.0572378 L218.984365,31.0572378 L218.984365,32.5211775 C218.522712,34.1601535 217.722515,35.5604437 216.614549,36.7379604 C217.537854,37.4221931 218.676596,38.0268639 220,38.5678851 L219.169026,39.9522628 C217.707126,39.2839425 216.476053,38.5519727 215.491195,37.7563533 C214.337064,38.6633594 212.936718,39.4112416 211.290158,40 L210.536126,38.5997098 C212.028802,38.1223382 213.30604,37.501755 214.352452,36.722048 C213.182933,35.4967941 212.398124,34.1283287 211.998025,32.6166518 L211.197828,32.6166518 L211.197828,31.0572378 L214.444783,31.0572378 L214.444783,28.9090654 L210.890059,28.9090654 L210.890059,27.3337389 Z M213.50609,32.6166518 C213.860023,33.7782562 214.506336,34.8284738 215.44503,35.7513923 C216.306781,34.8602986 216.968483,33.810081 217.414747,32.6166518 L213.50609,32.6166518 Z" id="塔-链-科-技"></path>
                <path d="M92.0231612,2.45258136 L87.3015873,2.45258136 L87.3015873,0.140818068 L99.3717762,0.140818068 L99.3717762,2.45258136 L94.6502023,2.45258136 L94.6502023,17.2502134 L92.0231612,17.2502134 L92.0231612,2.45258136 Z M99.6465768,11.1480971 C99.6465768,9.86508159 99.7530775,8.87936497 99.9660818,8.19091764 C100.186975,7.51811684 100.526199,6.95093863 100.983764,6.48936598 C101.322994,6.0825562 101.79633,5.71877982 102.403787,5.39802595 C103.003355,5.09291861 103.772526,4.93254408 104.711323,4.91689755 C105.681676,4.93254408 106.466625,5.09291861 107.066193,5.39802595 C107.657872,5.71877982 108.11543,6.0825562 108.438881,6.48936598 C108.928002,6.95093863 109.275115,7.51811684 109.480231,8.19091764 C109.677457,8.87936497 109.776069,9.86508159 109.776069,11.1480971 C109.776069,12.4311126 109.677457,13.409006 109.480231,14.0818068 C109.275115,14.7546076 108.928002,15.3374321 108.438881,15.8302978 C108.2811,16.0102329 108.087821,16.1862538 107.859039,16.3583656 C107.653923,16.5539472 107.389644,16.7221449 107.066193,16.8629637 C106.466625,17.1993641 105.681676,17.3753849 104.711323,17.3910314 C103.772526,17.3753849 103.003355,17.1993641 102.403787,16.8629637 C101.79633,16.5578563 101.322994,16.2136378 100.983764,15.8302978 C100.526199,15.3374321 100.186975,14.7546076 99.9660818,14.0818068 C99.7530775,13.409006 99.6465768,12.4311126 99.6465768,11.1480971 Z M107.302863,11.1715668 C107.302863,10.3031843 107.263419,9.66950935 107.184528,9.27052283 C107.105638,8.88718284 106.943914,8.55078749 106.699354,8.26132668 C106.517906,7.9875124 106.249682,7.77237583 105.894675,7.61591053 C105.555445,7.45162196 105.160999,7.36947891 104.711323,7.36947891 C104.293203,7.36947891 103.906645,7.45162196 103.551638,7.61591053 C103.212409,7.77237583 102.936296,7.9875124 102.723292,8.26132668 C102.510287,8.55078749 102.356453,8.88718284 102.261784,9.27052283 C102.167116,9.66950935 102.119782,10.2953612 102.119782,11.1480971 C102.119782,11.9930097 102.167116,12.6110384 102.261784,13.0022016 C102.356453,13.4011882 102.510287,13.7532298 102.723292,14.0583372 C102.936296,14.2930351 103.212409,14.5003485 103.551638,14.6802836 C103.906645,14.8523955 104.293203,14.9384501 104.711323,14.9384501 C105.160999,14.9384501 105.555445,14.8523955 105.894675,14.6802836 C106.249682,14.5003485 106.517906,14.2930351 106.699354,14.0583372 C106.943914,13.7532298 107.105638,13.4011882 107.184528,13.0022016 C107.263419,12.6110384 107.302863,12.0008329 107.302863,11.1715668 Z M121.221711,8.7189854 L121.174377,8.7189854 L118.606503,17.2502134 L116.429136,17.2502134 L112.500408,5.06945046 L115.115615,5.06945046 L117.470485,13.6006784 L117.51782,13.6006784 L120.31053,5.06945046 L122.097391,5.06945046 L124.890102,13.6006784 L124.937436,13.6006784 L127.280472,5.06945046 L129.89568,5.06945046 L125.978785,17.2502134 L123.789584,17.2502134 L121.221711,8.7189854 Z M135.105058,12.0868842 C135.105058,13.0647923 135.389059,13.8079914 135.957071,14.3165036 C136.485638,14.8328391 137.179864,15.091003 138.03977,15.091003 C139.04168,15.091003 139.937074,14.695934 140.725979,13.9057842 L142.51284,15.4195785 C141.258481,16.7495336 139.783251,17.406678 138.087104,17.3910314 C137.440202,17.3910314 136.809088,17.2971537 136.193741,17.1093953 C135.886068,17.0076929 135.586289,16.8707878 135.294394,16.6986759 C134.986721,16.5500339 134.698775,16.3661899 134.430547,16.1471385 C133.90987,15.6933891 133.487812,15.0597142 133.164361,14.2460946 C132.809353,13.4637681 132.631852,12.4467589 132.631852,11.1950364 C132.631852,9.9902536 132.785687,8.98889069 133.09336,8.19091764 C133.401033,7.37729807 133.795479,6.73579995 134.276711,6.26640404 C134.765833,5.78918487 135.314114,5.44496637 135.921571,5.23373821 C136.521138,5.02251005 137.112809,4.91689755 137.696598,4.91689755 C139.10085,4.93254408 140.288134,5.39019823 141.258487,6.28987372 C142.244619,7.20519574 142.745566,8.46472253 142.761344,10.0684919 L142.761344,12.0868842 L135.105058,12.0868842 Z M140.288139,10.0684919 C140.256583,9.1218768 140.000192,8.40605878 139.51896,7.92101634 C139.045617,7.4594437 138.438169,7.22866084 137.696598,7.22866084 C136.955027,7.22866084 136.34758,7.4594437 135.874236,7.92101634 C135.408782,8.40605878 135.152392,9.1218768 135.105058,10.0684919 L140.288139,10.0684919 Z M147.035874,5.06945046 L149.50908,5.06945046 L149.50908,6.36028275 L149.556414,6.36028275 C150.368986,5.39802114 151.433992,4.91689755 152.751464,4.91689755 C153.737595,4.93254408 154.597489,5.24546999 155.331171,5.85568467 L153.532476,7.97969054 C153.011798,7.57288075 152.471406,7.36947891 151.911284,7.36947891 C151.28016,7.36947891 150.739768,7.57288075 150.290092,7.97969054 C149.785192,8.37867706 149.524858,9.02408675 149.50908,9.91593898 L149.50908,17.2502134 L147.035874,17.2502134 L147.035874,5.06945046 Z M170.007363,12.462399 C169.628689,14.0505219 168.906851,15.2709329 167.841829,16.1236688 C166.745251,16.9685815 165.447522,17.3910314 163.948602,17.3910314 C162.591685,17.3597384 161.459623,17.0311662 160.552382,16.405305 C159.629363,15.8029135 158.958804,15.1066534 158.540684,14.3165036 C158.414459,14.0583359 158.30007,13.8119067 158.197512,13.5772088 C158.102843,13.3346875 158.023954,13.0295848 157.960842,12.6618913 C157.842506,11.973444 157.783339,10.651332 157.783339,8.69551572 C157.783339,6.70840638 157.842506,5.37847125 157.960842,4.70567045 C158.087066,4.03286965 158.280345,3.48916088 158.540684,3.07452783 C158.958804,2.28437805 159.629363,1.58029475 160.552382,0.9622568 C161.459623,0.33639559 162.591685,0.0156465303 163.948602,0 C165.613192,0.0156465303 166.970088,0.504593267 168.019332,1.46685488 C169.068576,2.43693976 169.731247,3.63779294 170.007363,5.06945046 L167.23832,5.06945046 C167.025316,4.38100313 166.638758,3.79426704 166.078635,3.30922461 C165.494845,2.84765196 164.784841,2.60904596 163.948602,2.59339943 C163.333256,2.60904596 162.804697,2.73030475 162.36291,2.95717944 C161.913234,3.19187739 161.550344,3.48524543 161.274227,3.83729236 C160.934997,4.20498582 160.710163,4.67828626 160.599716,5.25720788 C160.473491,5.86742256 160.41038,7.01351372 160.41038,8.69551572 C160.41038,10.3775177 160.473491,11.5157857 160.599716,12.1103539 C160.710163,12.704922 160.934997,13.1860456 161.274227,13.5537391 C161.550344,13.905786 161.913234,14.1913309 162.36291,14.4103823 C162.804697,14.6685501 163.333256,14.797632 163.948602,14.797632 C165.415966,14.797632 166.512527,14.0192288 167.23832,12.462399 L170.007363,12.462399 Z M173.311545,0.140818068 L175.78475,0.140818068 L175.78475,6.36028275 L175.832084,6.36028275 C176.644657,5.39802114 177.709663,4.91689755 179.027134,4.91689755 C180.044822,4.91689755 180.975716,5.27285078 181.819845,5.9847679 C182.656084,6.7045083 183.09392,7.76063325 183.133365,9.15317444 L183.133365,17.2502134 L180.66016,17.2502134 L180.66016,9.99808285 C180.66016,9.14534695 180.431381,8.49602569 179.973816,8.05009957 C179.52414,7.5963502 178.944303,7.36947891 178.234288,7.36947891 C177.524274,7.36947891 176.940493,7.5963502 176.482928,8.05009957 C176.017474,8.49602569 175.78475,9.14534695 175.78475,9.99808285 L175.78475,17.2502134 L173.311545,17.2502134 L173.311545,0.140818068 Z M194.460672,16.1706082 L194.413338,16.1706082 C194.184555,16.5852412 193.829553,16.890344 193.348321,17.0859256 C192.874978,17.2893305 192.220197,17.3910314 191.383957,17.3910314 C190.011262,17.3753849 188.954145,17.0155201 188.212574,16.3114262 C187.431558,15.6229789 187.041056,14.7428748 187.041056,13.6710875 C187.041056,12.6462397 187.38028,11.7974282 188.058739,11.1246274 C188.737197,10.4361801 189.731203,10.0841384 191.040785,10.0684919 L194.460672,10.0684919 L194.460672,8.78939443 C194.47645,7.71760711 193.636279,7.19736778 191.940133,7.22866084 C191.324787,7.22866084 190.839617,7.29124602 190.48461,7.41641827 C190.113824,7.5650603 189.821934,7.81540103 189.608929,8.16744796 L187.668232,6.70059308 C188.60703,5.48016372 189.991537,4.88560449 191.821797,4.91689755 C193.368052,4.90125102 194.60267,5.19070749 195.525689,5.78527564 C196.448708,6.39549032 196.918099,7.44379212 196.933877,8.9302125 L196.933877,17.2502134 L194.460672,17.2502134 L194.460672,16.1706082 Z M194.460672,12.0868842 L191.502292,12.0868842 C190.066485,12.1181773 189.356481,12.607124 189.372259,13.5537391 C189.372259,13.9683721 189.557649,14.3204138 189.928434,14.6098746 C190.283442,14.9306285 190.871167,15.091003 191.691629,15.091003 C192.725095,15.1066495 193.454821,14.9853907 193.88083,14.727223 C194.267393,14.4690552 194.460672,13.8823191 194.460672,12.9669971 L194.460672,12.0868842 Z M201.882918,5.06945046 L204.356123,5.06945046 L204.356123,17.2502134 L201.882918,17.2502134 L201.882918,5.06945046 Z M201.882918,0.140818068 L204.356123,0.140818068 L204.356123,2.59339943 L201.882918,2.59339943 L201.882918,0.140818068 Z M209.305164,5.06945046 L211.778369,5.06945046 L211.778369,6.36028275 L211.825703,6.36028275 C212.638276,5.39802114 213.703282,4.91689755 215.020753,4.91689755 C216.038441,4.91689755 216.969335,5.27285078 217.813464,5.9847679 C218.649703,6.7045083 219.087539,7.76063325 219.126984,9.15317444 L219.126984,17.2502134 L216.653779,17.2502134 L216.653779,9.99808285 C216.653779,9.14534695 216.425,8.49602569 215.967435,8.05009957 C215.517759,7.5963502 214.937922,7.36947891 214.227907,7.36947891 C213.517893,7.36947891 212.934112,7.5963502 212.476547,8.05009957 C212.011093,8.49602569 211.778369,9.14534695 211.778369,9.99808285 L211.778369,17.2502134 L209.305164,17.2502134 L209.305164,5.06945046 Z" id="TowerChain"></path>
            </g>
        </g>
    </g>
</svg>