<?xml version="1.0" encoding="UTF-8"?>
<svg width="65px" height="35px" viewBox="0 0 65 35" version="1.1" xmlns="http://www.w3.org/2000/svg" xmlns:xlink="http://www.w3.org/1999/xlink">
    <!-- Generator: Sketch 51.2 (57519) - http://www.bohemiancoding.com/sketch -->
    <title>Combined Shape Copy</title>
    <desc>Created with Sketch.</desc>
    <defs></defs>
    <g id="Page-2" stroke="none" stroke-width="1" fill="none" fill-rule="evenodd">
        <path d="M1.23528534,25.9723176 L5.58471358,21.6400807 C6.64842737,20.5805714 8.37304817,20.5805714 9.43676195,21.6400807 L13.6496412,25.8363083 C14.7133549,26.8958176 14.7133549,28.6136218 13.6496412,29.6731311 L9.30021291,34.005368 C8.23649913,35.0648773 6.51187833,35.0648773 5.44816454,34.005368 L1.23528534,29.8091405 C0.171571554,28.7496311 0.171571554,27.031827 1.23528534,25.9723176 Z M11.2593123,15.9879113 L15.6087406,11.6556744 C16.6724543,10.5961651 18.3970751,10.5961651 19.4607889,11.6556744 L23.6736681,15.8519019 C24.7373819,16.9114113 24.7373819,18.6292154 23.6736681,19.6887248 L19.3242399,24.0209617 C18.2605261,25.080471 16.5359053,25.080471 15.4721915,24.0209617 L11.2593123,19.8247341 C10.1955985,18.7652248 10.1955985,17.0474206 11.2593123,15.9879113 Z M21.116446,25.806084 L25.4658743,21.4738471 C26.529588,20.4143378 28.2542088,20.4143378 29.3179226,21.4738471 L33.5308018,25.6700746 C34.5945156,26.729584 34.5945156,28.4473881 33.5308018,29.5068975 L29.1813736,33.8391344 C28.1176598,34.8986437 26.393039,34.8986437 25.3293252,33.8391344 L21.116446,29.6429068 C20.0527322,28.5833975 20.0527322,26.8655933 21.116446,25.806084 Z M40.9976067,25.6398503 L45.3470349,21.3076135 C46.4107487,20.2481041 48.1353695,20.2481041 49.1990833,21.3076135 L53.4119625,25.503841 C54.4756763,26.5633504 54.4756763,28.2811545 53.4119625,29.3406639 L49.0625343,33.6729007 C47.9988205,34.7324101 46.2741997,34.7324101 45.2104859,33.6729007 L40.9976067,29.4766732 C39.9338929,28.4171638 39.9338929,26.6993597 40.9976067,25.6398503 Z M21.2833393,6.00350495 L25.6327675,1.67126813 C26.6964813,0.611758745 28.4211021,0.611758745 29.4848159,1.67126813 L33.6976951,5.86749563 C34.7614089,6.92700502 34.7614089,8.64480913 33.6976951,9.70431852 L29.3482669,14.0365553 C28.2845531,15.0960647 26.5599323,15.0960647 25.4962185,14.0365553 L21.2833393,9.84032784 C20.2196255,8.78081845 20.2196255,7.06301434 21.2833393,6.00350495 Z M31.140473,15.8216777 L35.4899012,11.4894408 C36.553615,10.4299314 38.2782358,10.4299314 39.3419496,11.4894408 L43.5548288,15.6856683 C44.6185426,16.7451777 44.6185426,18.4629818 43.5548288,19.5224912 L39.2054006,23.854728 C38.1416868,24.9142374 36.417066,24.9142374 35.3533522,23.854728 L31.140473,19.6585005 C30.0767592,18.5989912 30.0767592,16.881187 31.140473,15.8216777 Z M51.0216337,15.655444 L55.3710619,11.3232072 C56.4347757,10.2636978 58.1593965,10.2636978 59.2231103,11.3232072 L63.4359895,15.5194347 C64.4997033,16.5789441 64.4997033,18.2967482 63.4359895,19.3562576 L59.0865612,23.6884944 C58.0228474,24.7480038 56.2982266,24.7480038 55.2345129,23.6884944 L51.0216337,19.4922669 C49.9579199,18.4327575 49.9579199,16.7149534 51.0216337,15.655444 Z" id="Combined-Shape-Copy" fill="#006DD7"></path>
    </g>
</svg>